<svg width="30" height="30" viewBox="0 0 30 30" fill="none" xmlns="http://www.w3.org/2000/svg">
<path fill-rule="evenodd" clip-rule="evenodd" d="M18.7183 16.344C18.2865 15.9123 18.2408 15.2363 18.5212 14.6939C19.981 11.8706 19.5272 8.31417 17.1597 5.9467C14.2308 3.01777 9.48208 3.01777 6.55314 5.9467C3.62421 8.87563 3.62421 13.6244 6.55314 16.5533C8.92062 18.9208 12.4771 19.3746 15.3004 17.9148C15.8427 17.6344 16.5188 17.6801 16.9505 18.1118L22.463 23.6244C22.9512 24.1125 23.7427 24.1125 24.2308 23.6244C24.719 23.1362 24.719 22.3448 24.2308 21.8566L18.7183 16.344ZM15.392 7.71447C17.3446 9.66709 17.3446 12.8329 15.392 14.7855C13.4394 16.7382 10.2735 16.7382 8.32091 14.7855C6.36829 12.8329 6.36829 9.66709 8.32091 7.71447C10.2735 5.76184 13.4394 5.76184 15.392 7.71447Z" fill="#C9C4C0"/>
</svg>
