<svg width="8" height="8" viewBox="0 0 8 8" fill="none" xmlns="http://www.w3.org/2000/svg">
<path d="M4.35869 7.93281L4.49034 7.80739C4.58438 7.7178 4.58438 7.59238 4.49034 7.5028L0.822838 4.00896L4.49034 0.4972C4.58438 0.407615 4.58438 0.282195 4.49035 0.192609L4.35869 0.0671893C4.26465 -0.0223964 4.133 -0.0223964 4.03896 0.0671892L0.070529 3.8477C-0.0235097 3.93729 -0.0235097 4.06271 0.0705289 4.15229L4.03896 7.93281C4.133 8.0224 4.26465 8.0224 4.35869 7.93281Z" fill="#404040"/>
<path d="M7.79782 7.93281L7.92947 7.80739C8.02351 7.7178 8.02351 7.59239 7.92947 7.5028L4.26196 4.00896L7.92947 0.497201C8.02351 0.407616 8.02351 0.282196 7.92947 0.19261L7.79782 0.0671902C7.70378 -0.0223955 7.57212 -0.0223955 7.47809 0.0671902L3.50966 3.8477C3.41562 3.93729 3.41562 4.06271 3.50966 4.1523L7.47808 7.93281C7.57212 8.0224 7.70378 8.0224 7.79782 7.93281Z" fill="#404040"/>
</svg>
