<svg width="40" height="40" viewBox="0 0 40 40" fill="none" xmlns="http://www.w3.org/2000/svg">
<path fill-rule="evenodd" clip-rule="evenodd" d="M20.0002 23.3335C23.6821 23.3335 26.6668 20.3487 26.6668 16.6668C26.6668 12.9849 23.6821 10.0002 20.0002 10.0002C16.3183 10.0002 13.3335 12.9849 13.3335 16.6668C13.3335 20.3487 16.3183 23.3335 20.0002 23.3335ZM20.0002 20.0002C21.8411 20.0002 23.3335 18.5078 23.3335 16.6668C23.3335 14.8259 21.8411 13.3335 20.0002 13.3335C18.1592 13.3335 16.6668 14.8259 16.6668 16.6668C16.6668 18.5078 18.1592 20.0002 20.0002 20.0002Z" fill="#FF7506"/>
<path fill-rule="evenodd" clip-rule="evenodd" d="M29.877 33.4263C33.9951 30.3918 36.6668 25.508 36.6668 20.0002C36.6668 10.7954 29.2049 3.3335 20.0002 3.3335C10.7954 3.3335 3.3335 10.7954 3.3335 20.0002C3.3335 25.508 6.00519 30.3918 10.1233 33.4263C10.1991 33.4822 10.2753 33.5374 10.352 33.5919C11.1001 34.1239 11.894 34.5957 12.7266 35.0002C14.9246 36.0679 17.3924 36.6668 20.0002 36.6668C22.6079 36.6668 25.0758 36.0679 27.2737 35.0002C27.3184 34.9785 27.3629 34.9566 27.4074 34.9345C28.2764 34.5027 29.1023 33.9972 29.877 33.4263ZM28.7147 30.0918C31.5435 27.6468 33.3335 24.0325 33.3335 20.0002C33.3335 12.6364 27.364 6.66683 20.0002 6.66683C12.6364 6.66683 6.66683 12.6364 6.66683 20.0002C6.66683 24.0325 8.45685 27.6468 11.2856 30.0918C13.0013 27.0523 16.2611 25.0002 20.0002 25.0002C23.7393 25.0002 26.9991 27.0523 28.7147 30.0918ZM25.928 31.9466C24.8203 29.8007 22.5816 28.3335 20.0002 28.3335C17.4188 28.3335 15.18 29.8007 14.0724 31.9466C15.858 32.8343 17.8708 33.3335 20.0002 33.3335C22.1296 33.3335 24.1424 32.8343 25.928 31.9466Z" fill="#FF7506"/>
</svg>
