<svg width="32" height="32" viewBox="0 0 32 32" fill="none" xmlns="http://www.w3.org/2000/svg">
<path d="M26.6663 11.9198C26.6525 11.7973 26.6256 11.6767 26.5863 11.5598V11.4398C26.5222 11.3027 26.4367 11.1767 26.333 11.0665L18.333 3.0665C18.2228 2.96279 18.0968 2.87728 17.9597 2.81317H17.8397L17.413 2.6665H9.33301C8.27214 2.6665 7.25473 3.08793 6.50458 3.83808C5.75444 4.58822 5.33301 5.60564 5.33301 6.6665V25.3332C5.33301 26.394 5.75444 27.4115 6.50458 28.1616C7.25473 28.9117 8.27214 29.3332 9.33301 29.3332H22.6663C23.7272 29.3332 24.7446 28.9117 25.4948 28.1616C26.2449 27.4115 26.6663 26.394 26.6663 25.3332V11.9998C26.6663 11.9998 26.6663 11.9998 26.6663 11.9198ZM18.6663 7.21317L22.1197 10.6665H18.6663V7.21317ZM23.9997 25.3332C23.9997 25.6868 23.8592 26.0259 23.6091 26.276C23.3591 26.526 23.02 26.6665 22.6663 26.6665H9.33301C8.97939 26.6665 8.64025 26.526 8.3902 26.276C8.14015 26.0259 7.99967 25.6868 7.99967 25.3332V6.6665C7.99967 6.31288 8.14015 5.97374 8.3902 5.7237C8.64025 5.47365 8.97939 5.33317 9.33301 5.33317H15.9997V11.9998C15.9997 12.3535 16.1402 12.6926 16.3902 12.9426C16.6402 13.1927 16.9794 13.3332 17.333 13.3332H23.9997V25.3332Z" fill="white"/>
</svg>
