<svg width="32" height="32" viewBox="0 0 32 32" fill="none" xmlns="http://www.w3.org/2000/svg">
<path d="M9.33366 19.9998H13.3337C13.6873 19.9998 14.0264 19.8594 14.2765 19.6093C14.5265 19.3593 14.667 19.0201 14.667 18.6665C14.667 18.3129 14.5265 17.9737 14.2765 17.7237C14.0264 17.4736 13.6873 17.3332 13.3337 17.3332H9.33366C8.98004 17.3332 8.6409 17.4736 8.39085 17.7237C8.1408 17.9737 8.00033 18.3129 8.00033 18.6665C8.00033 19.0201 8.1408 19.3593 8.39085 19.6093C8.6409 19.8594 8.98004 19.9998 9.33366 19.9998ZM25.3337 6.6665H6.66699C5.60613 6.6665 4.58871 7.08793 3.83857 7.83808C3.08842 8.58822 2.66699 9.60564 2.66699 10.6665V22.6665C2.66699 23.7274 3.08842 24.7448 3.83857 25.4949C4.58871 26.2451 5.60613 26.6665 6.66699 26.6665H25.3337C26.3945 26.6665 27.4119 26.2451 28.1621 25.4949C28.9122 24.7448 29.3337 23.7274 29.3337 22.6665V10.6665C29.3337 9.60564 28.9122 8.58822 28.1621 7.83808C27.4119 7.08793 26.3945 6.6665 25.3337 6.6665ZM26.667 22.6665C26.667 23.0201 26.5265 23.3593 26.2765 23.6093C26.0264 23.8594 25.6873 23.9998 25.3337 23.9998H6.66699C6.31337 23.9998 5.97423 23.8594 5.72418 23.6093C5.47413 23.3593 5.33366 23.0201 5.33366 22.6665V14.6665H26.667V22.6665ZM26.667 11.9998H5.33366V10.6665C5.33366 10.3129 5.47413 9.97374 5.72418 9.7237C5.97423 9.47365 6.31337 9.33317 6.66699 9.33317H25.3337C25.6873 9.33317 26.0264 9.47365 26.2765 9.7237C26.5265 9.97374 26.667 10.3129 26.667 10.6665V11.9998Z" fill="white"/>
<circle cx="22.6663" cy="18.6668" r="1.33333" fill="white"/>
</svg>
