<svg width="151" height="103" viewBox="0 0 151 103" fill="none" xmlns="http://www.w3.org/2000/svg">
<path d="M14.016 97.1036C13.9578 96.7177 13.7612 96.39 13.4335 96.1279C13.1059 95.8657 12.7272 95.7347 12.3049 95.7347C11.8171 95.7347 11.402 95.8657 11.0744 96.1279C10.7467 96.39 10.5137 96.7176 10.3754 97.1108C10.237 97.504 10.1715 97.9409 10.1715 98.4215C10.1715 99.1569 10.3462 99.7758 10.6957 100.285C11.0452 100.795 11.5841 101.05 12.2976 101.05C12.8073 101.05 13.2151 100.89 13.5209 100.577C13.8267 100.264 14.0087 99.8341 14.0743 99.2952H15.7417C15.6543 100.285 15.2975 101.065 14.6786 101.633C14.0597 102.2 13.266 102.492 12.2976 102.492C11.118 102.492 10.186 102.106 9.48703 101.341C8.78802 100.569 8.4458 99.6011 8.4458 98.4288C8.4458 97.2346 8.7953 96.2444 9.48703 95.4653C10.1788 94.6789 11.118 94.293 12.2976 94.293C13.1859 94.293 13.9432 94.5405 14.5767 95.0429C15.2102 95.5454 15.5742 96.2371 15.6834 97.1108H14.016V97.1036Z" fill="#FF7506"/>
<path d="M24.2239 94.4688H25.9496V100.862H29.7722V102.311H24.2312V94.4688H24.2239Z" fill="#FF7506"/>
<path d="M38.0293 98.4229C38.0293 97.2288 38.3788 96.2385 39.0705 95.4594C39.7623 94.673 40.7015 94.2871 41.8811 94.2871C43.0607 94.2871 43.9927 94.6803 44.6917 95.4594C45.3834 96.2458 45.7329 97.2288 45.7329 98.4229C45.7329 99.5952 45.3834 100.564 44.6917 101.335C43.9927 102.107 43.0607 102.486 41.8811 102.486C40.7015 102.486 39.7695 102.1 39.0705 101.335C38.3788 100.564 38.0293 99.5952 38.0293 98.4229ZM39.755 98.4229C39.755 99.1583 39.9297 99.7772 40.2792 100.287C40.6287 100.797 41.1676 101.051 41.8811 101.051C42.602 101.051 43.1335 100.797 43.483 100.287C43.8325 99.7772 44.0073 99.1583 44.0073 98.4229C44.0073 97.9423 43.9417 97.5054 43.8034 97.1123C43.665 96.7191 43.432 96.3914 43.1044 96.1293C42.7767 95.8672 42.3617 95.7361 41.8738 95.7361C41.386 95.7361 40.971 95.8672 40.6433 96.1293C40.3156 96.3914 40.0826 96.7191 39.9443 97.1123C39.8205 97.5054 39.755 97.9423 39.755 98.4229Z" fill="#FF7506"/>
<path d="M60.1139 99.3464C60.1139 100.388 59.8227 101.167 59.2402 101.698C58.6577 102.222 57.8349 102.492 56.7645 102.492C55.6869 102.492 54.8641 102.23 54.2889 101.713C53.7137 101.196 53.4297 100.409 53.4297 99.3536V94.4824H55.1554V99.3536C55.1554 99.8633 55.2646 100.278 55.4903 100.591C55.716 100.905 56.1383 101.057 56.7718 101.057C57.3689 101.057 57.7912 100.926 58.0315 100.657C58.2718 100.388 58.3956 99.958 58.3956 99.3536V94.4824H60.1212V99.3464H60.1139Z" fill="#FF7506"/>
<path d="M68.1958 94.4688H71.5743C72.6374 94.4688 73.4966 94.8037 74.1519 95.4663C74.8072 96.1289 75.1349 97.09 75.1349 98.3424C75.1349 99.5293 74.8291 100.483 74.2247 101.211C73.6204 101.939 72.7321 102.303 71.5816 102.303H68.2031V94.4688H68.1958ZM69.9142 100.862H71.4505C72.0039 100.862 72.4699 100.672 72.8413 100.294C73.2126 99.9152 73.4019 99.3181 73.4019 98.5172C73.4019 97.6725 73.2272 97.0318 72.8777 96.5876C72.5282 96.1434 71.953 95.925 71.1375 95.925H69.9069V100.862H69.9142Z" fill="#FF7506"/>
<path d="M85.7145 98.7514C85.6417 98.3946 85.4742 98.1252 85.2194 97.9359C84.9573 97.7466 84.6442 97.6519 84.2728 97.6519C83.6976 97.6519 83.2607 97.8558 82.9695 98.2563C82.6782 98.6568 82.5326 99.1519 82.5326 99.7417C82.5326 100.375 82.6782 100.892 82.9695 101.293C83.2607 101.693 83.6976 101.897 84.2874 101.897C84.7243 101.897 85.0738 101.759 85.3359 101.482C85.598 101.205 85.7437 100.848 85.7728 100.412H86.4572C86.3917 101.067 86.166 101.569 85.7801 101.933C85.4014 102.29 84.8772 102.472 84.2291 102.472C83.4573 102.472 82.8675 102.225 82.4598 101.722C82.052 101.227 81.8481 100.579 81.8481 99.7926C81.8481 99.0063 82.0666 98.3582 82.4962 97.8485C82.9258 97.3388 83.5228 97.084 84.2874 97.084C84.8481 97.084 85.3213 97.2296 85.7145 97.5209C86.1077 97.8121 86.3407 98.2272 86.4135 98.7587H85.7145V98.7514Z" fill="#FF7506"/>
<path d="M94.5614 97.2012H95.3187L97.3283 102.349H96.5711L96.0104 100.798H93.8333L93.2581 102.349H92.5591L94.5614 97.2012ZM94.0518 100.223H95.7993L94.9401 97.8201H94.9255L94.0518 100.223Z" fill="#FF7506"/>
<path d="M103.175 97.2012H104.115L105.738 101.526L107.369 97.2012H108.309V102.349H107.661V98.0676H107.646L106.037 102.349H105.454L103.845 98.0676H103.831V102.349H103.183V97.2012H103.175Z" fill="#FF7506"/>
<path d="M114.621 97.2012H116.879C117.396 97.2012 117.781 97.3322 118.051 97.5944C118.32 97.8565 118.451 98.2351 118.451 98.723C118.451 99.2108 118.32 99.5822 118.051 99.8516C117.781 100.121 117.388 100.252 116.879 100.245H115.306V102.349H114.621V97.2012ZM115.306 99.6623H116.646C117.396 99.6695 117.774 99.3492 117.774 98.7157C117.774 98.0822 117.396 97.7691 116.646 97.7691H115.306V99.6623Z" fill="#FF7506"/>
<path d="M129.41 100.485C129.41 101.14 129.235 101.635 128.885 101.963C128.536 102.298 128.034 102.458 127.378 102.458C125.966 102.458 125.267 101.802 125.267 100.485V97.1934H125.951V100.485C125.951 100.943 126.075 101.293 126.322 101.533C126.57 101.773 126.919 101.89 127.385 101.89C127.822 101.89 128.157 101.773 128.383 101.533C128.609 101.293 128.725 100.943 128.725 100.485V97.1934H129.41V100.485Z" fill="#FF7506"/>
<path d="M139.342 98.7068C139.262 98.0078 138.839 97.651 138.068 97.651C137.733 97.651 137.463 97.7166 137.245 97.8549C137.026 97.9933 136.917 98.219 136.917 98.5321C136.917 98.7068 136.975 98.8452 137.099 98.9544C137.216 99.0636 137.376 99.151 137.573 99.2092C137.769 99.2675 137.98 99.3257 138.213 99.3694C138.446 99.4131 138.679 99.4714 138.92 99.5369C139.153 99.6024 139.371 99.6825 139.568 99.7845C139.764 99.8864 139.917 100.032 140.041 100.229C140.157 100.425 140.223 100.658 140.223 100.935C140.223 101.197 140.165 101.437 140.041 101.641C139.917 101.845 139.764 102.005 139.568 102.122C139.371 102.238 139.16 102.326 138.927 102.384C138.694 102.442 138.461 102.471 138.213 102.471C137.594 102.471 137.092 102.318 136.684 102.013C136.284 101.707 136.08 101.255 136.08 100.666H136.728C136.728 101.073 136.873 101.386 137.157 101.59C137.449 101.801 137.798 101.903 138.228 101.903C138.592 101.903 138.905 101.831 139.153 101.685C139.407 101.539 139.531 101.299 139.531 100.964C139.531 100.775 139.473 100.615 139.349 100.491C139.225 100.367 139.072 100.272 138.876 100.207C138.679 100.141 138.468 100.083 138.235 100.039C138.002 99.9883 137.769 99.9374 137.529 99.8791C137.296 99.8209 137.077 99.7408 136.881 99.6534C136.684 99.5587 136.531 99.4277 136.407 99.2529C136.284 99.0782 136.225 98.8597 136.225 98.6049C136.225 98.117 136.407 97.7384 136.772 97.4836C137.136 97.2287 137.58 97.0977 138.089 97.0977C138.65 97.0977 139.102 97.236 139.444 97.5054C139.786 97.7748 139.968 98.1826 139.99 98.7287H139.342V98.7068Z" fill="#FF7506"/>
<path d="M80.1232 49.76C77.0942 50.9104 73.7448 50.9104 70.7158 49.76L45.4714 40.1777C45.3112 41.4228 45.2166 42.6898 45.2166 43.9786C45.2166 60.631 58.7671 74.1815 75.4195 74.1815C92.0719 74.1815 105.622 60.631 105.622 43.9786C105.622 42.6898 105.528 41.4228 105.368 40.1777L80.1232 49.76ZM92.436 53.9904C92.436 53.9904 92.5962 64.3663 75.4195 64.5338C58.2429 64.3663 58.403 53.9904 58.403 53.9904V47.1023L69.609 51.4784C73.3443 52.9346 77.4874 52.9346 81.2227 51.4784L92.4287 47.1023V53.9904H92.436Z" fill="#FF7506"/>
<path d="M120.572 25.3317C118.613 25.3317 116.698 25.5211 114.848 25.8778C112.722 20.9775 109.679 16.4704 105.783 12.5821C97.6717 4.46345 86.8881 0 75.42 0C63.9519 0 53.1683 4.46345 45.0569 12.5749C41.1686 16.4631 38.1178 20.9702 35.9916 25.8706C34.1349 25.5138 32.2272 25.3245 30.2685 25.3245C13.5797 25.3317 0 38.9114 0 55.6002C0 71.7211 12.6695 84.944 28.5792 85.825H28.5865C29.1472 85.8541 29.7078 85.876 30.283 85.876C30.851 85.876 31.4189 85.8614 31.9796 85.825H73.4031C74.0802 85.8541 74.7574 85.876 75.4346 85.876C76.1117 85.876 76.7962 85.8614 77.466 85.825H118.89C119.45 85.8541 120.011 85.876 120.586 85.876C137.282 85.876 150.862 72.2963 150.862 55.6002C150.84 38.9114 137.26 25.3317 120.572 25.3317ZM75.42 6.96095C91.7811 6.96095 105.688 17.6354 110.56 32.3873L101.196 28.2516C95.8805 19.5722 86.3129 13.769 75.4127 13.769C64.5126 13.769 54.9449 19.5722 49.6295 28.2516L40.2657 32.3873C45.1515 17.6354 59.0589 6.96095 75.42 6.96095ZM75.42 80.9902C55.0104 80.9902 38.409 64.3888 38.409 43.9792C38.409 41.8458 38.5983 39.7561 38.9478 37.7173L38.9187 37.7027H38.9114H38.9187L44.6637 35.1615L44.6855 35.1688L44.7001 35.1615L70.0682 23.9556C73.4832 22.4483 77.3714 22.4483 80.7791 23.9556L106.147 35.1615L111.892 37.7027C112.242 39.7415 112.431 41.8385 112.431 43.9792C112.431 64.3888 95.8296 80.9902 75.42 80.9902Z" fill="#FF7506"/>
</svg>
