<svg width="64" height="64" viewBox="0 0 64 64" fill="none" xmlns="http://www.w3.org/2000/svg">
<path fill-rule="evenodd" clip-rule="evenodd" d="M17.1847 9.82764C21.57 6.89747 26.7258 5.3335 31.9999 5.3335C35.5018 5.3335 38.9695 6.02325 42.2048 7.36338C45.4402 8.7035 48.3799 10.6678 50.8561 13.144C53.3323 15.6202 55.2966 18.5599 56.6367 21.7953C57.9768 25.0306 58.6666 28.4982 58.6666 32.0002C58.6666 37.2743 57.1026 42.4301 54.1725 46.8154C51.2423 51.2007 47.0775 54.6186 42.2048 56.637C37.3321 58.6553 31.9704 59.1834 26.7975 58.1544C21.6247 57.1255 16.8732 54.5857 13.1437 50.8563C9.41435 47.1269 6.8746 42.3754 5.84566 37.2026C4.81672 32.0297 5.34481 26.668 7.36314 21.7953C9.38148 16.9226 12.7994 12.7578 17.1847 9.82764Z" fill="#49C510"/>
<path d="M27.7589 34.9067L39.1989 23.44C39.6985 22.9433 40.3744 22.6646 41.0789 22.6646C41.7834 22.6646 42.4592 22.9433 42.9589 23.44C43.2088 23.6879 43.4072 23.9828 43.5426 24.3078C43.678 24.6328 43.7477 24.9813 43.7477 25.3333C43.7477 25.6854 43.678 26.0339 43.5426 26.3589C43.4072 26.6838 43.2088 26.9788 42.9589 27.2267L29.6255 40.56C29.1288 41.0526 28.4584 41.3304 27.7589 41.3333C27.4079 41.3354 27.06 41.2681 26.7351 41.1354C26.4102 41.0027 26.1147 40.8071 25.8655 40.56L19.5989 34.2667C19.3197 34.0276 19.093 33.7334 18.9329 33.4026C18.7729 33.0717 18.6829 32.7114 18.6687 32.3441C18.6545 31.9769 18.7164 31.6107 18.8505 31.2685C18.9846 30.9263 19.1879 30.6155 19.4478 30.3556C19.7077 30.0957 20.0185 29.8924 20.3607 29.7583C20.7029 29.6242 21.0691 29.5623 21.4363 29.5765C21.8036 29.5907 22.1639 29.6807 22.4948 29.8407C22.8256 30.0008 23.1198 30.2275 23.3589 30.5067L27.7589 34.9067Z" fill="white"/>
</svg>
